<?xml version="1.0" standalone="no"?><!DOCTYPE svg PUBLIC "-//W3C//DTD SVG 1.1//EN" "http://www.w3.org/Graphics/SVG/1.1/DTD/svg11.dtd"><svg t="1637391956485" class="icon" viewBox="0 0 1028 1024" version="1.1" xmlns="http://www.w3.org/2000/svg" p-id="4906" width="32.125" height="32" xmlns:xlink="http://www.w3.org/1999/xlink"><defs><style type="text/css"></style></defs><path d="M1024 192C1024 132.266667 977.066667 85.333333 917.333333 85.333333h-810.666666C46.933333 85.333333 0 132.266667 0 192v640c0 8.533333 0 12.8 4.266667 21.333333 8.533333 46.933333 51.2 85.333333 102.4 85.333334h836.266666c4.266667 0 8.533333-4.266667 12.8-4.266667 0 0 4.266667 0 4.266667-4.266667 4.266667 0 8.533333-4.266667 12.8-8.533333 0 0 4.266667 0 4.266667-4.266667 4.266667-4.266667 8.533333-4.266667 12.8-8.533333l4.266666-4.266667c4.266667-4.266667 4.266667-8.533333 8.533334-12.8l4.266666-4.266666c4.266667-4.266667 4.266667-8.533333 8.533334-12.8 4.266667-4.266667 4.266667-12.8 8.533333-17.066667V853.333333c0-8.533333 4.266667-17.066667 4.266667-25.6V192zM106.666667 170.666667h810.666666c12.8 0 21.333333 8.533333 21.333334 21.333333v477.866667l-251.733334-234.666667c-17.066667-17.066667-42.666667-17.066667-59.733333 0l-221.866667 221.866667L302.933333 554.666667c-17.066667-17.066667-38.4-17.066667-55.466666-4.266667L85.333333 686.933333V192c0-12.8 8.533333-21.333333 21.333334-21.333333z" p-id="4907" fill="#ffffff"></path><path d="M170.666667 469.333333c4.266667 4.266667 12.8 8.533333 21.333333 8.533334s17.066667 0 21.333333-8.533334l64-64L341.333333 469.333333c4.266667 4.266667 12.8 8.533333 21.333334 8.533334s17.066667 0 21.333333-8.533334c12.8-12.8 12.8-34.133333 0-46.933333L324.266667 362.666667 384 298.666667c12.8-12.8 12.8-29.866667 0-42.666667s-29.866667-12.8-42.666667 0L277.333333 315.733333 213.333333 256c-12.8-12.8-29.866667-12.8-42.666666 0s-12.8 29.866667 0 42.666667l64 64L170.666667 426.666667c-12.8 12.8-12.8 29.866667 0 42.666666z" p-id="4908" fill="#ffffff"></path></svg>